<svg width="70" height="21" viewBox="0 0 70 21" fill="none" xmlns="http://www.w3.org/2000/svg">
<path d="M5.68 19.872C5.44533 19.936 5.072 20 4.56 20.064C4.06933 20.128 3.57867 20.16 3.088 20.16C2.59733 20.16 2.16 20.1173 1.776 20.032C1.41333 19.968 1.104 19.84 0.848 19.648C0.592 19.456 0.4 19.1893 0.272 18.848C0.144 18.5067 0.0800002 18.0587 0.0800002 17.504V0.608C0.314667 0.565332 0.688 0.511999 1.2 0.448C1.712 0.362666 2.20267 0.32 2.672 0.32C3.16267 0.32 3.58933 0.362666 3.952 0.448C4.336 0.511999 4.656 0.639999 4.912 0.831999C5.168 1.024 5.36 1.29067 5.488 1.632C5.616 1.97333 5.68 2.42133 5.68 2.976V19.872ZM19.27 10.144C19.27 9.48267 19.078 9.00267 18.694 8.704C18.3313 8.384 17.83 8.224 17.19 8.224C16.7633 8.224 16.3367 8.27733 15.91 8.384C15.5047 8.49067 15.1527 8.65067 14.854 8.864V19.968C14.6407 20.032 14.2993 20.096 13.83 20.16C13.382 20.224 12.9127 20.256 12.422 20.256C11.9527 20.256 11.526 20.224 11.142 20.16C10.7793 20.096 10.47 19.968 10.214 19.776C9.958 19.584 9.75533 19.328 9.606 19.008C9.478 18.6667 9.414 18.2293 9.414 17.696V8.096C9.414 7.52 9.53133 7.05067 9.766 6.688C10.022 6.32533 10.3633 5.99467 10.79 5.696C11.5153 5.184 12.422 4.768 13.51 4.448C14.6193 4.128 15.846 3.968 17.19 3.968C19.6007 3.968 21.4567 4.50133 22.758 5.568C24.0593 6.61333 24.71 8.07467 24.71 9.952V19.968C24.4967 20.032 24.1553 20.096 23.686 20.16C23.238 20.224 22.7687 20.256 22.278 20.256C21.8087 20.256 21.382 20.224 20.998 20.16C20.6353 20.096 20.326 19.968 20.07 19.776C19.814 19.584 19.6113 19.328 19.462 19.008C19.334 18.6667 19.27 18.2293 19.27 17.696V10.144ZM35.5263 3.968C36.4009 3.968 37.2543 4.096 38.0863 4.352C38.9396 4.58667 39.6756 4.94933 40.2943 5.44C40.9343 5.01333 41.6489 4.66133 42.4383 4.384C43.2489 4.10667 44.2196 3.968 45.3503 3.968C46.1609 3.968 46.9503 4.07467 47.7183 4.288C48.5076 4.50133 49.2009 4.84267 49.7983 5.312C50.4169 5.76 50.9076 6.368 51.2703 7.136C51.6329 7.88267 51.8143 8.8 51.8143 9.888V19.968C51.6009 20.032 51.2596 20.096 50.7903 20.16C50.3423 20.224 49.8729 20.256 49.3823 20.256C48.9129 20.256 48.4863 20.224 48.1023 20.16C47.7396 20.096 47.4303 19.968 47.1743 19.776C46.9183 19.584 46.7156 19.328 46.5663 19.008C46.4383 18.6667 46.3743 18.2293 46.3743 17.696V10.048C46.3743 9.408 46.1929 8.94933 45.8303 8.672C45.4676 8.37333 44.9769 8.224 44.3583 8.224C44.0596 8.224 43.7396 8.29867 43.3983 8.448C43.0569 8.576 42.8009 8.71467 42.6303 8.864C42.6516 8.94933 42.6623 9.03467 42.6623 9.12C42.6623 9.184 42.6623 9.248 42.6623 9.312V19.968C42.4276 20.032 42.0756 20.096 41.6063 20.16C41.1583 20.224 40.6996 20.256 40.2303 20.256C39.7609 20.256 39.3343 20.224 38.9503 20.16C38.5876 20.096 38.2783 19.968 38.0223 19.776C37.7663 19.584 37.5636 19.328 37.4143 19.008C37.2863 18.6667 37.2223 18.2293 37.2223 17.696V10.048C37.2223 9.408 37.0196 8.94933 36.6143 8.672C36.2303 8.37333 35.7609 8.224 35.2063 8.224C34.8223 8.224 34.4916 8.288 34.2143 8.416C33.9369 8.52267 33.7023 8.62933 33.5103 8.736V19.968C33.2969 20.032 32.9556 20.096 32.4863 20.16C32.0383 20.224 31.5689 20.256 31.0783 20.256C30.6089 20.256 30.1823 20.224 29.7983 20.16C29.4356 20.096 29.1263 19.968 28.8703 19.776C28.6143 19.584 28.4116 19.328 28.2623 19.008C28.1343 18.6667 28.0703 18.2293 28.0703 17.696V8.032C28.0703 7.456 28.1876 6.99733 28.4223 6.656C28.6783 6.31467 29.0196 5.99467 29.4463 5.696C30.1716 5.184 31.0676 4.768 32.1343 4.448C33.2223 4.128 34.3529 3.968 35.5263 3.968ZM61.7888 16.544C62.1514 16.544 62.5461 16.512 62.9728 16.448C63.4208 16.3627 63.7514 16.256 63.9648 16.128V13.568L61.6608 13.76C61.0634 13.8027 60.5728 13.9307 60.1888 14.144C59.8048 14.3573 59.6128 14.6773 59.6128 15.104C59.6128 15.5307 59.7728 15.8827 60.0928 16.16C60.4341 16.416 60.9994 16.544 61.7888 16.544ZM61.5328 3.968C62.6848 3.968 63.7301 4.08533 64.6688 4.32C65.6288 4.55467 66.4394 4.91733 67.1008 5.408C67.7834 5.87733 68.3061 6.48533 68.6688 7.232C69.0314 7.95733 69.2128 8.82133 69.2128 9.824V16.992C69.2128 17.5467 69.0528 18.0053 68.7328 18.368C68.4341 18.7093 68.0714 19.008 67.6448 19.264C66.2581 20.096 64.3061 20.512 61.7888 20.512C60.6581 20.512 59.6341 20.4053 58.7168 20.192C57.8208 19.9787 57.0421 19.6587 56.3808 19.232C55.7408 18.8053 55.2394 18.2613 54.8768 17.6C54.5354 16.9387 54.3648 16.1707 54.3648 15.296C54.3648 13.824 54.8021 12.6933 55.6768 11.904C56.5514 11.1147 57.9061 10.624 59.7408 10.432L63.9328 9.984V9.76C63.9328 9.14133 63.6554 8.704 63.1008 8.448C62.5674 8.17067 61.7888 8.032 60.7648 8.032C59.9541 8.032 59.1648 8.11733 58.3968 8.288C57.6288 8.45867 56.9354 8.672 56.3168 8.928C56.0394 8.736 55.8048 8.448 55.6128 8.064C55.4208 7.65867 55.3248 7.24267 55.3248 6.816C55.3248 6.26133 55.4528 5.824 55.7088 5.504C55.9861 5.16267 56.4021 4.87467 56.9568 4.64C57.5754 4.40533 58.3008 4.23467 59.1328 4.128C59.9861 4.02133 60.7861 3.968 61.5328 3.968Z" fill="#6B58DB"/>
</svg>
